<?xml version="1.0" encoding="utf-8"?>
<!-- Generator: Adobe Illustrator 24.3.0, SVG Export Plug-In . SVG Version: 6.00 Build 0)  -->
<svg version="1.1" id="Layer_1" xmlns="http://www.w3.org/2000/svg" xmlns:xlink="http://www.w3.org/1999/xlink" x="0px" y="0px"
	 viewBox="0 0 100 100" style="enable-background:new 0 0 100 100;" xml:space="preserve">
<style type="text/css">
	.st0{fill:#4F00FC;}
	.st1{fill:#FFFFFF;}
</style>
<circle class="st0" cx="50" cy="51.2" r="46.9"/>
<g>
	<g>
		<path class="st1" d="M20.9,70.5V33.4h5.3l11.9,18.8c2.7,4.4,4.9,8.3,6.6,12.1l0.1-0.1c-0.4-5-0.5-9.5-0.5-15.2V33.4h4.5v37.2h-4.9
			L32.1,51.7c-2.6-4.2-5.1-8.4-6.9-12.4l-0.2,0.1c0.3,4.7,0.4,9.2,0.4,15.3v15.9H20.9z"/>
		<path class="st1" d="M64.3,37.4H52.9v-4.1h27.5v4.1H69.1v33.1h-4.8V37.4z"/>
	</g>
</g>
<g>
	<g>
		<path class="st1" d="M92.1,53.7c-4.5,0-5.2,2.8-5.2,4.8c0,1.7,0.2,3.4,0.5,5.2c0.2,1.7,0.5,3.5,0.5,5.2c0,6.5-4,8.8-9.3,8.8h-1.3
			v-3.5h1.1c3.6-0.1,5.1-2,5.1-5.6c0-1.5-0.2-3-0.5-4.6c-0.2-1.5-0.5-3.2-0.5-4.9c-0.1-4.1,1.8-6.3,4.6-7V52
			c-2.9-0.7-4.7-2.8-4.6-6.9c0-1.7,0.2-3.3,0.5-4.9c0.2-1.5,0.5-3.1,0.5-4.6c0-3.5-1.3-5.4-5.1-5.5h-1.1v-3.5h1.3
			c5.5,0,9.3,2.5,9.3,8.4c0,1.8-0.2,3.5-0.5,5.3c-0.3,1.8-0.5,3.6-0.5,5.3c0,2.3,0.6,4.8,5.2,4.8V53.7z"/>
	</g>
</g>
<g>
	<g>
		<path class="st1" d="M7.7,50.5c4.5,0,5.2-2.5,5.2-4.8c0-1.8-0.2-3.6-0.5-5.3c-0.2-1.8-0.5-3.6-0.5-5.3c0-5.9,3.9-8.4,9.3-8.4h1.3
			v3.5h-1.1c-3.8,0.1-5.1,2-5.1,5.5c0,1.5,0.2,3,0.5,4.6c0.2,1.6,0.5,3.1,0.5,4.9c0.1,4.1-1.8,6.2-4.6,6.9v0.1
			c2.9,0.7,4.7,2.9,4.6,7c0,1.7-0.2,3.3-0.5,4.9c-0.2,1.6-0.5,3.1-0.5,4.6c0,3.6,1.5,5.5,5.1,5.6h1.1v3.5h-1.3
			c-5.3,0-9.3-2.3-9.3-8.8c0-1.7,0.2-3.5,0.5-5.2c0.3-1.8,0.5-3.5,0.5-5.2c0-2-0.6-4.8-5.2-4.8V50.5z"/>
	</g>
</g>
</svg>
